<?xml version="1.0" encoding="UTF-8"?>
<svg width="709px" height="186px" viewBox="0 0 709 186" xmlns="http://www.w3.org/2000/svg" xmlns:xlink="http://www.w3.org/1999/xlink" version="1.1">
 <!-- Generated by Pixelmator Pro 1.7 -->
 <path id="path4" d="M208.127 18.789 C207.829 18.599 207.95 18.632 207.399 18.495 200.374 18.394 172.435 17.526 170.169 18.858 L102.524 58.675 C101.255 59.434 100.862 60.023 99.073 60.057 L99.198 18.222 C95.137 17.682 74.569 17.719 69.949 18.048 L69.595 107.186 98.957 107.295 99.22 64.673 168.571 106.289 C169.531 107.062 169.74 106.719 171.207 107.196 173.947 108.087 186.803 107.709 191.109 107.725 193.519 107.734 207.158 108.177 209.376 107.709 209.453 107.693 209.555 107.65 209.615 107.634 L210.06 107.438 C209.943 105.855 210.242 106.744 209.351 106.045 188.411 94.099 136.058 62.939 135.9 61.825 135.754 60.785 136.337 60.853 137.078 60.522 Z" fill="#008f35" fill-opacity="1" stroke="none"/>
 <path id="path10" d="M606.074 123.402 C606.029 121.388 606.011 119.266 606.497 117.482 607.106 115.249 605.852 108.916 604.78 106.722 L602.982 102.509 C607.62 102.158 614.812 103.114 620.044 103.193 621.592 105.563 621.779 106.609 625.459 106.207 625.954 105.727 626.11 105.146 625.482 104.329 622.56 102.187 623.417 102.57 620.094 101.732 618.942 101.66 617.182 101.726 616.138 101.497 612.647 100.73 608.562 101.206 604.953 101.022 L601.483 99.895 C599.511 98.555 592.997 82.873 591.183 79.969 590.124 78.274 588.908 77.8 588.782 75.443 588.618 72.375 587.782 70.585 585.501 68.825 579.804 67.118 576.9 65.784 570.952 65.652 570.789 64.65 570.934 62.915 571.35 62.172 571.376 62.125 571.43 62.06 571.457 62.013 575.698 54.824 573.972 42.122 568.689 35.705 L565.911 32.649 C564.614 31.936 565.512 32.581 564.373 31.629 560.128 29.283 555.755 28.265 550.837 29.334 547.292 30.17 539.19 32.706 539.556 37.182 540.888 37.679 542.508 38.441 544.076 37.351 549.371 31.878 559.35 29.584 564.282 36.048 566.125 38.857 568.853 44.417 568.596 47.805 565.917 48.61 564.059 48.483 561.279 48.457 557.993 48.426 556.929 48.223 554.091 47.063 550.383 45.176 545.051 40.684 541.621 45.142 540.946 46.019 540.737 47.531 541.136 48.629 547.514 60.234 554.007 61.297 565.53 60.992 565.526 59.489 565.737 60.16 564.902 59.445 563.079 57.883 555.087 59.98 551.651 57.548 549.952 56.346 548.374 54.957 547.436 53.076 546.202 50.961 544.758 45.624 547.151 46.196 547.228 45.966 549.416 47.296 552.867 48.485 558.767 50.517 567.391 50.878 568.765 50.463 568.74 53.472 567.648 60.889 566.239 63.201 L564.41 66.361 C555.442 69.113 559.208 69.684 550.175 69.346 544.7 69.141 539.328 71.556 535.635 75.535 535.228 75.973 535.466 75.715 535.195 75.962 L532.004 79.19 C531.029 80.197 530.721 81.557 529.857 82.568 529.822 82.609 529.76 82.668 529.722 82.707 L529.421 82.966 C529.374 83.008 529.03 83.304 528.959 83.378 L528.204 84.39 C528.054 84.615 527.608 85.442 527.589 85.51 527.411 86.166 527.51 86.305 527.552 87.015 L531.493 87.316 541.96 74.918 C544.556 72.441 547.725 70.798 551.405 70.818 551.295 71.676 551.324 71.968 550.789 72.454 547.761 74.175 547.975 74.395 546.151 77.692 545.306 79.219 545.128 80.415 545.129 82.236 545.132 86.981 550.863 94.18 556.47 94.064 562.353 93.942 555.978 90.215 555.609 89.836 551.701 85.821 551.486 80.308 556.187 76.113 L557.078 75.271 C559.547 72.802 565.132 71.025 568.459 70.118 570.538 69.767 580.211 67.014 580.514 71.49 574.437 71.941 564.654 70.485 559.395 74.962 558.094 76.07 557.497 77.961 558.019 79.926 L561.298 86.729 C562.348 88.541 563.475 90.164 565.17 91.357 566.614 92.372 567.773 93.189 569.518 93.503 570.601 93.699 571.929 93.473 573.018 93.362 573.129 90.232 567.09 84.537 566.818 80.282 566.623 77.225 576.388 73.929 581.276 78.816 585.819 85.501 590.513 96.276 594.56 103.601 594.59 103.656 594.634 103.729 594.664 103.784 597.254 107.795 599.454 119.666 596.974 122.755 596.942 122.794 596.873 122.864 596.844 122.899 L596.456 123.352 C594.683 123.484 592.729 123.399 590.934 123.389 571.502 123.288 560.949 117.087 543.463 112.495 542.65 112.281 543.735 112.555 542.485 112.091 540.923 111.512 540.462 111.998 539.973 110.612 539.193 108.403 539.238 107.397 537.921 105.056 L534.87 100.569 C534.164 99.849 533.215 99.218 533.064 98.174 L535.654 97.154 C537.688 96.024 540.983 93.185 542.06 90.462 543.272 87.393 538.884 88.592 537.939 89.179 L536.863 90.2 C536.826 90.253 536.786 90.329 536.751 90.382 536.509 90.758 536.671 90.526 536.436 90.916 534.736 93.151 532.51 96.049 529.417 96.237 528.262 96.307 527.854 95.586 525.739 95.632 525.72 97.024 526.144 97.541 529.363 97.688 529.913 102 534.094 104.476 534.801 108.497 534.825 108.555 534.868 108.625 534.894 108.679 535.267 109.458 535.438 108.693 535.468 111.284 534.416 111.334 534.019 111.332 533.167 111.631 L531.442 112.216 C529.957 112.939 531.113 113.611 528.024 113.496 527.231 110.11 527.164 107.388 523.86 105.642 L523.096 105.238 C518.218 102.464 509.876 102.242 505.906 104.968 500.878 108.69 505.96 109.524 508.339 108.724 L509.318 110.235 C510.162 111.894 509.724 114.284 510.07 116.107 510.18 116.965 511.065 117.345 512.782 117.209 514.092 117.017 514.49 116.66 514.63 115.283 514.795 113.658 513.509 109.821 512.424 108.647 511.805 107.977 512.656 108.599 511.444 107.972 L511.566 106.188 C528.854 104.787 523.887 119.563 521.86 132.939 521.354 136.28 520.112 139.016 516.469 139.073 504.461 140.267 506.838 131.6 503.414 130.532 502.942 130.385 503.068 130.42 502.582 130.395 495.839 130.042 504.515 139.004 509.37 140.939 510.93 141.561 513.547 141.354 515.308 141.364 522.794 141.408 524.721 140.654 527.046 132.029 527.177 131.091 527.157 130.113 527.173 129.142 L530.466 129.067 C531.708 127.06 530.041 128.683 532.284 127.524 L532.693 125.426 C533.338 123.545 533.138 122.674 534.292 120.022 L537.199 115.878 C542.484 115.257 543.296 115.532 546.928 117.58 546.986 117.612 547.063 117.651 547.117 117.685 L551.814 120.216 C561.463 125.534 609.238 130.41 624.42 125.57 628.561 124.296 635.289 122.454 638.675 120.403 640.178 119.492 641.298 118.557 644.713 119.335 644.872 119.682 644.994 120.104 645.153 120.474 646.843 124.099 649.039 131.359 647.876 134.683 646.316 139.142 632.564 141.161 628.926 141.544 601.494 142.666 576.618 137.607 549.615 137.513 543.334 137.491 544.355 137.343 539.776 140.401 L538.506 141.444 C538.332 141.603 538.227 141.692 538.05 141.839 L535.259 144.599 C517.174 172.388 537.807 150.907 543.411 144.92 543.449 144.874 543.514 144.817 543.553 144.773 544.255 143.97 544.238 143.308 544.663 142.338 546.22 138.786 549.664 139.675 553.407 139.874 576.93 142.385 608.804 147.851 635.131 144.924 651.826 143.068 656.865 140.947 656.906 125.661 656.924 118.947 656.979 117.432 654.488 112.123 L652.676 109.289 C650.51 107.694 648.117 106.611 645.363 106.347 643.351 106.212 639.431 105.902 638.011 106.94 L634.715 110.67 C633.562 112.686 631.577 111.333 630.499 110.748 625.374 108.69 616.786 105.666 611.97 105.797 611.006 106.284 610.936 106.836 612.012 107.476 617.948 109.959 624.31 110.499 630.407 113.514 L632.067 114.227 632.303 115.979 631.173 117.233 C629.713 118.41 625.435 118.907 623.475 120.013 L620.532 121.129 C618.8 121.987 619.274 121.621 617.163 122.119 L612.09 123.354 C610.21 123.715 607.934 123.69 606.074 123.402 Z" fill="#3a3a3a" fill-opacity="1" stroke="none"/>
 <g id="Layer1000">
  <path id="path20" d="M104.552 161.702 C105.669 163.139 106.225 163.899 106.219 163.984 105.599 164.327 104.764 164.712 103.727 165.138 102.689 165.564 101.42 166.04 99.932 166.582 98.335 167.166 97.008 167.591 95.937 167.848 94.866 168.105 94.048 168.237 93.484 168.235 92.264 168.231 91.179 168.05 90.243 167.701 89.308 167.352 88.523 166.809 87.89 166.065 87.806 165.964 87.722 165.854 87.624 165.735 87.526 165.608 87.413 165.482 87.27 165.346 86.567 164.948 85.878 164.557 85.22 164.159 84.914 163.955 84.323 163.481 83.447 162.728 82.585 161.974 81.5 160.95 80.19 159.647 79.609 159.03 78.996 158.412 78.325 157.786 77.653 157.16 76.951 156.525 76.235 155.882 76.009 156.041 75.753 156.42 75.451 157.025 75.164 157.623 74.861 158.439 74.543 159.475 74.532 159.635 74.421 159.913 74.195 160.291 73.971 160.661 73.859 160.948 73.846 161.124 73.84 161.208 73.861 161.344 73.924 161.529 73.986 161.723 74.007 161.858 74.001 161.942 73.964 162.465 73.784 163.265 73.433 164.334 73.083 165.395 72.888 166.195 72.85 166.726 72.82 167.147 72.675 167.458 72.417 167.66 72.144 167.853 71.71 167.952 71.115 167.95 70.492 167.914 70.008 167.861 69.647 167.793 69.2 167.858 68.785 167.908 68.386 167.94 68.066 167.939 67.814 167.828 67.633 167.6 67.45 167.38 67.383 167.034 67.418 166.554 67.43 166.385 67.524 166.124 67.703 165.763 67.881 165.401 67.962 165.123 67.976 164.929 67.986 164.794 67.97 164.583 67.899 164.297 67.828 164.01 67.797 163.799 67.807 163.664 67.816 163.538 67.907 163.125 68.094 162.435 68.28 161.744 68.565 160.751 68.963 159.454 69.317 158.124 69.637 157.071 69.906 156.297 70.174 155.522 70.346 155.051 70.448 154.891 70.549 154.774 70.68 154.639 70.845 154.471 71.009 154.312 71.115 154.11 71.192 153.883 L70.622 152.473 C70.92 151.715 71.289 150.604 71.746 149.131 72.187 147.657 72.731 145.805 73.379 143.574 73.732 142.26 74.018 141.241 74.223 140.517 74.428 139.793 74.548 139.381 74.571 139.28 75.046 138.607 75.727 138.045 76.613 137.601 77.515 137.15 78.638 136.808 79.995 136.586 80.183 136.519 80.403 136.427 80.67 136.319 80.923 136.201 81.237 136.076 81.614 135.926 81.997 135.893 82.464 136.19 83.014 136.816 83.563 137.45 83.836 137.906 83.814 138.21 83.805 138.336 83.762 138.513 83.684 138.74 83.608 138.959 83.467 139.22 83.278 139.514 83.039 139.876 82.85 140.17 82.712 140.397 82.588 140.633 82.501 140.784 82.465 140.868 81.912 141.768 81.297 142.903 80.604 144.266 79.912 145.629 79.141 147.245 78.291 149.096 78.219 149.247 78.13 149.433 78.038 149.652 77.945 149.879 77.805 150.139 77.599 150.459 77.472 150.737 77.347 150.989 77.24 151.216 77.131 151.452 77.071 151.646 77.059 151.814 77.044 152.025 77.18 152.261 77.451 152.532 78.363 152.35 79.845 151.681 81.895 150.526 83.946 149.361 86.594 147.736 89.84 145.649 93.149 143.521 95.637 141.794 97.319 140.46 98.985 139.126 99.845 138.193 99.884 137.646 99.898 137.452 99.687 137.198 99.236 136.893 98.801 136.588 98.591 136.326 98.606 136.115 98.636 135.686 99.013 135.324 99.75 135.041 100.488 134.748 101.586 134.533 103.045 134.395 103.352 134.38 103.82 134.23 104.464 133.962 105.109 133.686 105.653 133.554 106.095 133.556 106.533 133.608 106.942 133.643 107.337 133.661 107.851 133.511 108.351 133.361 108.835 133.195 109.26 133.441 109.56 133.72 109.721 134.024 109.898 134.328 109.964 134.682 109.936 135.078 109.88 135.862 109.662 136.561 109.268 137.158 108.89 137.755 108.322 138.233 107.579 138.593 107.374 138.693 107.137 138.81 106.899 138.936 106.645 139.07 106.391 139.212 106.151 139.38 105.622 139.934 104.937 140.555 104.051 141.226 103.163 141.898 102.12 142.627 100.903 143.432 98.217 145.166 95.759 146.691 93.515 147.998 91.286 149.304 89.271 150.401 87.484 151.28 86.74 151.656 86.183 151.983 85.813 152.251 85.428 152.519 85.228 152.755 85.214 152.948 85.678 153.498 86.1 153.997 86.448 154.462 87.096 155.417 87.777 156.346 88.505 157.259 89.218 158.164 89.93 159.077 90.642 160.007 91.854 161.393 92.985 162.426 94.05 163.113 95.113 163.799 96.11 164.148 97.026 164.152 97.178 164.152 97.627 164.053 98.387 163.87 99.133 163.68 100.143 163.422 101.388 163.072 101.662 162.863 102.261 162.604 103.152 162.303 104.042 162.003 104.514 161.803 104.552 161.702 Z M105.94 160.636 L110.101 159.185 C110.26 159.102 110.435 158.993 110.659 158.85 110.882 158.716 111.125 158.515 111.419 158.255 111.648 158.036 111.935 157.86 112.281 157.71 112.626 157.568 113.033 157.435 113.499 157.318 113.739 157.159 114.104 156.95 114.564 156.707 115.024 156.464 115.608 156.18 116.318 155.854 116.661 155.754 117.083 155.612 117.6 155.42 118.116 155.237 118.683 154.986 119.3 154.676 122.116 153.271 124.556 152.218 126.649 151.518 128.743 150.817 130.476 150.47 131.879 150.475 132.657 150.478 133.214 150.573 133.568 150.751 133.935 150.938 134.1 151.191 134.077 151.52 134.052 151.865 133.923 152.168 133.676 152.429 133.428 152.697 133.076 152.915 132.576 153.091 131.823 153.391 130.991 153.717 130.096 154.076 129.598 154.42 128.993 154.78 128.279 155.165 127.565 155.55 126.745 155.926 125.788 156.302 125.483 156.52 125.21 156.704 125 156.872 124.842 156.947 124.541 157.098 124.115 157.307 123.687 157.525 123.121 157.767 122.415 158.043 122.084 158.404 121.41 158.873 120.363 159.442 119.33 160.02 117.954 160.706 116.234 161.501 116.012 161.618 115.628 161.878 115.049 162.289 114.486 162.699 113.746 163.236 112.843 163.916 L113.132 164.136 C113.796 164.02 114.496 163.829 115.233 163.554 115.97 163.27 116.79 162.902 117.691 162.45 118.735 161.94 119.587 161.53 120.251 161.212 120.914 160.894 121.386 160.685 121.668 160.585 121.871 160.519 122.089 160.452 122.292 160.394 122.51 160.327 122.761 160.244 123.027 160.144 124.463 159.247 125.793 158.578 126.998 158.152 128.218 157.719 129.332 157.503 130.354 157.507 130.979 157.51 131.442 157.646 131.742 157.917 132.059 158.188 132.212 158.601 132.234 159.141 132.114 159.967 132.027 160.759 131.973 161.509 131.905 162.039 132.13 162.512 132.649 162.936 133.168 163.359 133.869 163.572 134.754 163.575 135.028 163.576 135.291 163.535 135.54 163.452 135.806 163.369 136.073 163.26 136.342 163.126 136.566 162.975 136.775 162.833 136.967 162.699 137.175 162.565 137.382 162.439 137.59 162.305 137.714 162.271 137.887 162.213 138.121 162.13 138.34 162.046 138.562 161.946 138.783 161.829 139.175 162.328 139.51 162.759 139.773 163.131 140.036 163.502 140.226 163.832 140.359 164.11 139.648 164.453 138.951 164.813 138.253 165.182 137.555 165.558 136.829 165.91 136.058 166.235 135.132 166.611 134.257 166.894 133.404 167.085 132.567 167.276 131.722 167.366 130.883 167.362 128.962 167.355 127.489 167.047 126.496 166.436 125.503 165.817 124.959 164.896 124.865 163.657 124.875 163.514 124.84 163.362 124.791 163.202 124.725 163.049 124.569 162.889 124.352 162.719 124.194 162.803 124.02 162.887 123.846 162.979 123.656 163.071 123.434 163.188 123.195 163.33 122.787 163.497 122.284 163.698 121.687 163.948 121.09 164.191 120.398 164.483 119.595 164.826 118.501 165.412 117.597 165.897 116.853 166.274 116.11 166.65 115.572 166.918 115.27 167.085 114.655 167.361 113.934 167.637 113.121 167.912 112.323 168.187 111.404 168.47 110.406 168.77 109.768 168.945 109.224 169.086 108.759 169.194 108.309 169.302 107.97 169.351 107.772 169.35 106.338 169.345 105.285 169.147 104.627 168.757 103.968 168.367 103.675 167.767 103.734 166.95 103.766 166.503 103.979 166.083 104.359 165.679 104.738 165.276 105.285 164.882 106.014 164.506 106.091 164.287 106.133 164.118 106.143 163.984 106.149 163.899 106.124 163.815 106.054 163.73 105.984 163.637 105.885 163.536 105.786 163.426 105.62 163.189 105.441 162.927 105.232 162.64 105.04 162.344 104.818 162.031 104.567 161.702 104.694 161.635 104.871 161.509 105.113 161.324 105.34 161.14 105.616 160.905 105.94 160.636 Z M138.737 161.837 C139.234 161.493 139.748 161.133 140.248 160.755 142.499 159.777 144.351 158.832 145.819 157.927 147.272 157.014 148.34 156.167 149.021 155.385 L148.664 154.195 C149.075 153.784 150.069 153.307 151.649 152.757 153.215 152.198 154.485 151.924 155.43 151.928 156.452 151.932 157.294 152.103 157.972 152.434 158.634 152.766 159.296 153.114 159.925 153.47 160.238 153.589 160.475 153.683 160.623 153.751 161.777 154.244 162.613 154.93 163.145 155.808 163.677 156.678 163.906 157.741 163.817 158.989 163.769 159.646 163.245 160.588 162.227 161.806 161.224 163.033 160.685 163.958 160.64 164.582 160.634 164.666 160.691 164.725 160.794 164.776 160.882 164.827 161.032 164.853 161.2 164.854 161.597 164.855 162.061 164.764 162.608 164.572 163.155 164.389 163.738 164.13 164.387 163.803 166.019 162.95 166.998 162.481 167.325 162.398 167.667 162.307 168.074 162.157 168.562 161.939 168.782 162.269 169.047 162.624 169.355 163.004 169.664 163.385 169.955 163.79 170.229 164.221 169.945 164.355 169.629 164.506 169.28 164.69 168.932 164.865 168.506 165.066 168.001 165.3 166.965 165.71 165.618 166.202 163.945 166.777 162.287 167.353 160.303 168.019 157.977 168.761 157.367 168.978 156.668 169.144 155.896 169.276 154.646 169.271 153.708 169.167 153.098 168.954 152.487 168.749 152.206 168.411 152.239 167.956 152.252 167.771 152.328 167.568 152.482 167.325 152.621 167.089 152.838 166.829 153.087 166.551 153.285 166.341 153.499 166.123 153.713 165.896 153.942 165.678 154.142 165.451 154.311 165.224 155.025 164.19 155.597 163.231 156.012 162.339 156.411 161.456 156.636 160.656 156.686 159.948 156.749 159.08 156.552 158.414 156.097 157.949 155.642 157.492 154.914 157.219 153.943 157.156 153.273 157.348 152.537 157.623 151.733 157.983 150.945 158.342 150.119 158.794 149.272 159.331 148.376 159.926 147.564 160.403 146.85 160.78 146.137 161.156 145.555 161.407 145.103 161.54 144.811 161.784 144.363 162.069 143.747 162.378 143.129 162.688 142.313 163.022 141.311 163.381 141.245 163.448 141.147 163.54 141.015 163.675 140.884 163.809 140.69 163.952 140.404 164.119 140.187 163.739 139.94 163.359 139.661 162.987 139.383 162.615 139.074 162.235 138.737 161.837 Z M168.532 161.94 L168.729 161.747 C168.921 161.613 169.161 161.453 169.466 161.252 169.754 161.059 170.106 160.833 170.521 160.573 172.718 159.494 174.869 158.213 176.989 156.72 179.109 155.236 181.215 153.516 183.321 151.576 183.578 151.392 183.869 151.157 184.18 150.863 184.506 150.569 184.853 150.2 185.25 149.763 185.258 149.662 185.217 149.586 185.129 149.544 185.041 149.493 184.89 149.467 184.677 149.466 184.509 149.465 184.217 149.49 183.801 149.547 183.401 149.604 183.094 149.629 182.88 149.628 L177.3 149.607 C177.056 149.606 176.675 149.597 176.112 149.577 175.565 149.559 175.169 149.549 174.94 149.548 174.641 149.471 174.372 149.394 174.132 149.334 173.876 149.283 173.637 149.214 173.398 149.146 173.052 149.086 172.784 148.992 172.592 148.89 172.402 148.78 172.32 148.653 172.331 148.501 172.406 147.448 172.662 146.648 173.114 146.085 173.55 145.531 174.18 145.255 175.019 145.258 175.857 145.261 176.633 145.281 177.363 145.326 178.091 145.37 178.728 145.423 179.303 145.493 179.749 145.444 180.164 145.395 180.564 145.346 181.357 145.349 182.042 145.368 182.603 145.404 183.18 145.44 183.604 145.484 183.891 145.535 184.29 145.486 184.675 145.446 185.044 145.405 185.428 145.364 185.827 145.323 186.289 145.274 L187.735 145.524 C188.792 145.461 189.948 144.656 191.232 143.11 192.518 141.564 193.824 140.793 195.165 140.798 195.882 140.801 196.422 140.929 196.786 141.175 197.164 141.421 197.337 141.784 197.303 142.264 197.275 142.643 197.026 143.14 196.586 143.753 196.144 144.376 195.883 144.838 195.799 145.15 195.855 145.217 195.927 145.285 196.028 145.361 196.129 145.437 196.276 145.522 196.482 145.624 196.661 145.692 196.774 145.802 196.84 145.954 196.905 146.115 196.921 146.309 196.905 146.536 196.834 147.53 196.704 148.288 196.497 148.827 196.291 149.357 196.012 149.634 195.66 149.65 L192.601 149.984 C192.528 150.153 192.437 150.355 192.344 150.59 192.236 150.826 192.094 151.103 191.92 151.406 191.358 152.23 190.719 153.264 190.003 154.526 189.304 155.78 188.495 157.268 187.595 158.985 187.023 160.365 186.577 161.476 186.273 162.326 185.952 163.184 185.789 163.757 185.768 164.052 185.749 164.313 185.811 164.516 185.954 164.642 186.082 164.778 186.306 164.846 186.611 164.847 186.778 164.848 187.451 164.614 188.598 164.138 189.746 163.662 191.351 162.96 193.416 162.032 L194.991 164.314 C194.688 164.498 194.247 164.707 193.695 164.958 193.143 165.2 192.484 165.467 191.717 165.743 191.414 165.927 191.018 166.128 190.56 166.345 190.102 166.571 189.58 166.831 189.025 167.124 188.467 167.459 187.91 167.785 187.368 168.112 186.825 168.447 186.269 168.766 185.713 169.075 184.965 169.511 184.257 169.811 183.557 170.003 182.857 170.194 182.21 170.284 181.616 170.282 180.304 170.277 179.344 170.055 178.735 169.622 178.125 169.19 177.851 168.532 177.914 167.656 177.983 166.695 178.104 165.861 178.276 165.162 178.433 164.454 178.672 163.891 178.977 163.462 179.093 163.336 179.193 163.218 179.261 163.118 179.273 162.957 179.335 162.73 179.446 162.452 179.558 162.174 179.688 161.846 179.822 161.468 180.05 160.828 180.294 160.188 180.539 159.54 180.902 159.154 181.268 158.734 181.666 158.288 181.672 158.204 181.555 158.136 181.316 158.068 L180.863 158.209 C180.392 158.604 179.784 159.015 179.036 159.45 178.287 159.885 177.401 160.337 176.391 160.814 174.808 161.617 173.21 162.421 171.565 163.241 171.468 163.324 171.292 163.442 171.051 163.609 170.795 163.769 170.521 163.978 170.199 164.222 170.06 164.019 169.895 163.774 169.689 163.461 169.482 163.157 169.263 162.811 169.047 162.414 168.993 162.312 168.923 162.219 168.838 162.135 168.752 162.059 168.65 161.991 168.532 161.94 Z M227.913 172.932 C227.76 172.931 227.608 172.931 227.455 172.93 227.318 172.93 227.12 172.929 226.876 172.928 226.159 172.925 225.573 172.805 225.102 172.576 224.614 172.347 224.305 171.983 224.173 171.485 224.123 171.333 224.096 171.064 224.095 170.659 224.093 170.254 224.116 169.715 224.165 169.033 224.185 168.754 224.17 168.324 224.122 167.726 224.072 167.135 224.058 166.697 224.078 166.419 224.085 166.318 224.144 166.141 224.237 165.897 224.331 165.653 224.401 165.316 224.462 164.887 224.552 164.491 224.647 164.011 224.748 163.455 224.725 162.924 224.655 162.409 224.539 161.894 224.816 161.019 225.123 160.135 225.447 159.226 225.487 159.1 225.489 158.855 225.437 158.51 225.386 158.164 225.356 157.936 225.365 157.818 225.373 157.7 225.446 157.532 225.569 157.313 225.676 157.095 225.75 156.909 225.759 156.783 225.772 156.614 225.72 156.488 225.636 156.386 225.536 156.285 225.387 156.234 225.173 156.233 225.018 156.266 224.848 156.307 224.647 156.349 224.446 156.382 224.244 156.432 224.042 156.482 223.858 156.498 223.627 156.53 223.365 156.572 223.087 156.621 222.762 156.679 222.361 156.745 L221.976 156.592 221.855 156.347 C222.149 156.087 222.442 155.827 222.734 155.583 223.041 155.34 223.318 155.096 223.58 154.845 223.854 154.635 224.203 154.451 224.596 154.284 224.989 154.125 225.412 153.958 225.836 153.799 226.178 153.7 226.472 153.439 226.716 153.01 226.975 152.581 227.188 151.958 227.369 151.133 227.558 150.198 227.75 149.432 227.929 148.843 228.124 148.253 228.306 147.849 228.473 147.639 228.594 147.437 228.765 147.185 228.97 146.874 228.978 146.773 228.942 146.621 228.867 146.402 228.79 146.191 228.756 146.039 228.761 145.963 229.029 145.205 229.295 144.473 229.543 143.766 229.982 142.748 230.787 141.731 232.004 140.716 233.205 139.7 234.791 138.636 236.777 137.53 238.821 136.467 241.712 135.703 245.467 135.245 245.89 135.288 246.253 135.34 246.57 135.392 L248.07 135.103 C248.222 135.103 248.403 135.129 248.628 135.18 248.838 135.232 249.123 135.3 249.482 135.403 250.176 135.287 250.777 135.214 251.283 135.165 251.79 135.117 252.188 135.092 252.493 135.094 254.338 135.1 255.701 135.24 256.596 135.514 257.476 135.795 257.904 136.209 257.864 136.766 257.842 137.078 257.786 137.431 257.681 137.827 257.577 138.223 257.409 138.652 257.193 139.115 256.951 139.721 256.674 140.175 256.378 140.477 256.097 140.78 255.78 140.947 255.458 140.979 254.694 140.783 253.914 140.594 253.118 140.415 252.338 140.243 251.513 140.055 250.658 139.849 L249.032 140.189 C248.531 140.161 247.985 140.117 247.394 140.065 246.875 140.063 246.309 140.086 245.665 140.143 245.02 140.199 244.344 140.272 243.65 140.371 241.758 140.608 240.65 140.95 240.314 141.387 239.993 141.816 239.448 142.404 238.678 143.142 238.422 143.31 237.993 143.974 237.391 145.144 236.789 146.313 235.984 147.971 234.96 150.125 234.923 150.226 234.804 150.394 234.587 150.646 234.371 150.889 234.266 151.091 234.254 151.26 234.237 151.487 234.301 151.665 234.444 151.792 234.573 151.919 234.766 151.986 235.009 152.004 235.459 151.888 236.078 151.764 236.836 151.623 237.608 151.491 238.533 151.343 239.628 151.178 240.578 151.115 241.545 151.034 242.514 150.928 243.496 150.831 244.512 150.699 245.561 150.535 L246.675 150.539 248.245 150.545 C249.258 150.447 250.302 150.359 251.346 150.261 253.069 150.268 254.355 150.407 255.205 150.68 256.054 150.961 256.455 151.342 256.419 151.839 256.412 151.932 256.379 152.185 256.304 152.589 256.23 152.993 256.115 153.532 255.975 154.206 255.566 154.584 255.142 154.97 254.687 155.356 254.428 155.355 253.746 155.294 252.658 155.163 251.568 155.041 250.011 154.85 248.015 154.598 247.292 154.688 246.509 154.769 245.667 154.817 244.839 154.873 243.967 154.904 243.083 154.9 242.519 154.898 241.707 154.946 240.633 155.034 239.574 155.132 238.762 155.188 238.196 155.202 237.803 155.361 237.399 155.478 236.981 155.552 236.579 155.626 236.181 155.658 235.8 155.657 235.586 155.656 235.13 155.629 234.417 155.584 234.035 155.583 233.64 155.775 233.263 156.153 232.884 156.54 232.521 157.137 232.189 157.945 L231.671 159.005 231.937 159.764 230.872 162.702 C230.865 162.811 230.884 162.955 230.904 163.107 230.938 163.267 230.957 163.427 230.946 163.587 230.471 164.9 230.089 166.189 229.847 167.443 229.588 168.707 229.422 169.962 229.333 171.209 229.314 171.471 229.187 171.748 228.952 172.051 228.717 172.345 228.376 172.639 227.913 172.932 Z M255.52 162.262 C255.742 162.145 255.965 162.003 256.208 161.81 256.435 161.625 256.709 161.416 257.031 161.189 L260.57 159.904 C261.016 159.628 261.682 159.276 262.582 158.85 263.482 158.423 264.587 157.896 265.912 157.286 266.078 157.101 266.337 156.891 266.704 156.657 267.057 156.422 267.485 156.187 267.975 155.953 268.402 155.744 268.843 155.543 269.268 155.36 269.694 155.167 270.103 154.983 270.467 154.808 270.927 154.557 271.372 154.314 271.785 154.071 272.215 153.828 272.629 153.585 273.072 153.359 273.561 153.134 274.062 152.95 274.575 152.817 275.087 152.693 275.656 152.627 276.251 152.629 276.907 152.632 277.391 152.676 277.735 152.77 278.064 152.864 278.238 152.991 278.257 153.151 277.94 153.529 277.593 153.907 277.246 154.285 L277.488 154.514 C278.82 154.232 279.857 154.033 280.614 153.902 281.37 153.778 281.847 153.712 282.06 153.713 284.226 153.721 285.831 154.089 286.861 154.826 287.891 155.564 288.36 156.678 288.255 158.153 288.234 158.439 288.15 158.767 288 159.146 287.853 159.517 287.64 159.929 287.333 160.375 287.008 160.871 286.659 161.274 286.284 161.601 285.925 161.937 285.588 162.172 285.273 162.314 285.382 162.5 285.508 162.643 285.654 162.737 285.785 162.821 285.98 162.873 286.224 162.874 286.453 162.875 286.7 162.833 286.965 162.75 287.231 162.667 287.543 162.55 287.906 162.382 288.186 162.746 288.448 163.126 288.695 163.515 288.956 163.904 289.219 164.284 289.482 164.664 288.929 164.924 288.392 165.183 287.871 165.434 287.335 165.676 286.784 165.919 286.203 166.144 285.494 166.462 284.838 166.687 284.218 166.819 283.598 166.96 282.998 167.026 282.404 167.023 281.717 167.021 281.16 166.934 280.715 166.747 280.286 166.56 279.954 166.306 279.703 165.968 278.917 166.513 277.981 167.015 276.897 167.466 275.812 167.918 274.611 168.293 273.324 168.583 272.562 168.782 271.865 168.931 271.248 169.039 270.63 169.146 270.077 169.194 269.574 169.193 269.422 169.192 269.129 169.225 268.698 169.29 268.251 169.356 267.897 169.389 267.638 169.388 265.946 169.381 264.434 168.98 263.135 168.174 261.819 167.377 261.197 166.481 261.267 165.504 261.295 165.108 261.5 164.586 261.867 163.93 262.249 163.282 262.444 162.903 262.453 162.786 262.461 162.667 262.392 162.574 262.26 162.498 262.142 162.43 261.948 162.387 261.719 162.387 261.566 162.386 261.206 162.511 260.61 162.754 260.028 162.996 259.21 163.347 258.14 163.806 258.043 163.873 257.929 163.974 257.799 164.1 257.667 164.234 257.474 164.377 257.187 164.544 256.97 164.164 256.723 163.784 256.446 163.395 256.168 163.007 255.86 162.626 255.52 162.262 Z M277.34 157.868 C277.186 157.884 276.967 157.967 276.681 158.127 276.38 158.277 276.091 158.47 275.816 158.705 275.362 159.074 274.86 159.485 274.294 159.93 273.944 160.131 273.598 160.281 273.209 160.381 272.836 160.489 272.403 160.563 271.927 160.612 271.621 160.628 271.305 160.787 270.948 161.089 270.605 161.391 270.253 161.837 269.877 162.409 269.52 162.921 269.246 163.35 269.067 163.712 268.888 164.074 268.806 164.377 268.787 164.629 268.755 165.085 268.928 165.431 269.338 165.668 269.734 165.897 270.366 166.018 271.22 166.021 272.592 166.026 273.857 165.82 275.046 165.403 276.22 164.986 277.333 164.358 278.414 163.527 278.909 163.217 279.372 162.924 279.805 162.639 280.055 162.547 280.265 162.388 280.418 162.161 280.586 161.942 280.759 161.665 280.935 161.337 L281.828 159.933 C281.604 159.443 281.373 159.046 281.165 158.759 280.942 158.471 280.71 158.293 280.486 158.225 280.338 158.174 280.021 158.122 279.507 158.061 279.008 158 278.28 157.939 277.34 157.868 Z M287.814 162.391 C288.311 162.047 288.826 161.686 289.326 161.309 291.577 160.331 293.429 159.385 294.896 158.481 296.35 157.567 297.417 156.72 298.098 155.939 L297.741 154.749 C298.152 154.337 299.147 153.861 300.726 153.31 302.292 152.751 303.562 152.478 304.508 152.481 305.529 152.485 306.371 152.657 307.049 152.988 307.712 153.319 308.373 153.667 309.003 154.024 309.315 154.143 309.552 154.236 309.7 154.304 310.854 154.798 311.69 155.483 312.222 156.362 312.754 157.232 312.983 158.295 312.894 159.542 312.847 160.199 312.322 161.141 311.304 162.36 310.301 163.587 309.762 164.512 309.718 165.135 309.711 165.22 309.768 165.279 309.871 165.33 309.959 165.381 310.11 165.407 310.278 165.407 310.674 165.409 311.138 165.318 311.686 165.126 312.233 164.943 312.816 164.683 313.464 164.357 315.096 163.503 316.075 163.035 316.402 162.952 316.744 162.861 317.151 162.71 317.64 162.493 317.86 162.822 318.124 163.178 318.433 163.558 318.741 163.938 319.032 164.344 319.306 164.775 319.022 164.909 318.706 165.059 318.358 165.243 318.01 165.419 317.583 165.62 317.078 165.854 316.043 166.263 314.696 166.755 313.023 167.331 311.365 167.906 309.38 168.573 307.054 169.315 306.444 169.532 305.746 169.698 304.974 169.83 303.724 169.825 302.785 169.72 302.175 169.507 301.565 169.303 301.284 168.965 301.316 168.509 301.33 168.324 301.405 168.122 301.56 167.878 301.699 167.643 301.915 167.382 302.164 167.105 302.362 166.895 302.576 166.677 302.791 166.45 303.02 166.232 303.219 166.005 303.388 165.778 304.102 164.744 304.675 163.785 305.089 162.893 305.488 162.01 305.713 161.21 305.764 160.502 305.826 159.634 305.629 158.967 305.174 158.502 304.719 158.045 303.991 157.773 303.02 157.71 302.35 157.901 301.614 158.177 300.81 158.536 300.022 158.896 299.196 159.348 298.349 159.884 297.453 160.479 296.641 160.957 295.928 161.333 295.215 161.71 294.632 161.961 294.18 162.094 293.888 162.337 293.441 162.622 292.824 162.932 292.207 163.241 291.39 163.576 290.388 163.934 290.322 164.002 290.224 164.094 290.093 164.228 289.961 164.362 289.768 164.505 289.481 164.673 289.264 164.292 289.017 163.912 288.738 163.54 288.46 163.169 288.152 162.788 287.814 162.391 Z" fill="#3a3a3a" fill-opacity="1" stroke="none"/>
  <path id="path22" d="M354.988 173.403 C354.836 173.402 354.683 173.402 354.531 173.401 354.394 173.401 354.195 173.4 353.951 173.399 353.235 173.396 352.648 173.276 352.177 173.047 351.69 172.818 351.38 172.454 351.248 171.956 351.198 171.804 351.172 171.535 351.17 171.13 351.169 170.725 351.192 170.186 351.241 169.504 351.261 169.225 351.245 168.795 351.197 168.197 351.148 167.606 351.134 167.168 351.154 166.89 351.161 166.789 351.219 166.612 351.313 166.368 351.407 166.124 351.477 165.787 351.538 165.358 351.627 164.962 351.722 164.482 351.823 163.926 351.8 163.395 351.73 162.88 351.615 162.365 351.891 161.49 352.199 160.606 352.523 159.697 352.562 159.571 352.564 159.326 352.513 158.981 352.461 158.635 352.432 158.407 352.44 158.289 352.449 158.171 352.522 158.003 352.645 157.784 352.752 157.566 352.826 157.38 352.835 157.254 352.847 157.085 352.795 156.959 352.711 156.857 352.611 156.756 352.462 156.705 352.249 156.704 352.094 156.737 351.923 156.778 351.722 156.82 351.521 156.853 351.32 156.903 351.118 156.953 350.933 156.969 350.702 157.001 350.44 157.043 350.162 157.092 349.838 157.15 349.436 157.216 L349.051 157.063 348.931 156.818 C349.224 156.558 349.518 156.298 349.809 156.054 350.117 155.811 350.393 155.567 350.655 155.316 350.93 155.106 351.279 154.922 351.671 154.755 352.065 154.596 352.488 154.429 352.911 154.27 353.254 154.171 353.547 153.91 353.791 153.481 354.051 153.052 354.263 152.429 354.444 151.604 354.633 150.669 354.825 149.903 355.005 149.314 355.199 148.724 355.381 148.32 355.548 148.11 355.67 147.908 355.841 147.656 356.045 147.345 356.053 147.244 356.018 147.092 355.942 146.873 355.866 146.662 355.831 146.51 355.836 146.434 356.104 145.676 356.37 144.944 356.619 144.237 357.058 143.219 357.863 142.202 359.079 141.187 360.281 140.171 361.867 139.107 363.852 138.001 365.896 136.938 368.788 136.174 372.542 135.716 372.966 135.759 373.328 135.811 373.645 135.863 L375.145 135.574 C375.297 135.574 375.479 135.6 375.704 135.651 375.913 135.703 376.198 135.771 376.557 135.874 377.252 135.758 377.852 135.685 378.359 135.636 378.865 135.588 379.264 135.563 379.569 135.565 381.414 135.571 382.776 135.711 383.672 135.985 384.551 136.266 384.979 136.68 384.939 137.237 384.917 137.549 384.861 137.902 384.757 138.298 384.652 138.694 384.484 139.123 384.268 139.586 384.026 140.192 383.75 140.646 383.454 140.948 383.173 141.251 382.855 141.418 382.533 141.45 381.769 141.254 380.99 141.065 380.194 140.886 379.413 140.714 378.588 140.526 377.734 140.32 L376.108 140.66 C375.606 140.632 375.06 140.588 374.469 140.536 373.951 140.534 373.385 140.557 372.74 140.614 372.095 140.67 371.419 140.743 370.726 140.842 368.833 141.079 367.726 141.421 367.389 141.858 367.069 142.287 366.524 142.875 365.754 143.613 365.497 143.781 365.069 144.445 364.466 145.615 363.864 146.784 363.059 148.442 362.036 150.596 361.998 150.697 361.879 150.865 361.663 151.117 361.447 151.36 361.341 151.562 361.329 151.731 361.313 151.958 361.377 152.136 361.52 152.263 361.648 152.39 361.841 152.457 362.084 152.475 362.535 152.359 363.154 152.235 363.911 152.094 364.683 151.962 365.608 151.814 366.704 151.65 367.654 151.586 368.62 151.505 369.589 151.399 370.572 151.302 371.588 151.17 372.637 151.006 L373.75 151.01 375.32 151.016 C376.334 150.918 377.377 150.83 378.421 150.732 380.145 150.739 381.431 150.878 382.281 151.151 383.13 151.432 383.53 151.813 383.494 152.311 383.488 152.403 383.454 152.656 383.379 153.06 383.305 153.464 383.19 154.003 383.05 154.677 382.642 155.055 382.217 155.441 381.763 155.827 381.504 155.826 380.822 155.765 379.733 155.634 378.643 155.512 377.086 155.321 375.091 155.069 374.368 155.159 373.584 155.24 372.742 155.288 371.914 155.344 371.043 155.375 370.158 155.371 369.594 155.369 368.783 155.417 367.708 155.505 366.65 155.603 365.837 155.659 365.272 155.673 364.879 155.832 364.474 155.949 364.057 156.023 363.655 156.097 363.256 156.129 362.875 156.128 362.661 156.127 362.206 156.1 361.492 156.055 361.111 156.054 360.716 156.246 360.338 156.624 359.96 157.011 359.597 157.608 359.264 158.416 L358.746 159.476 359.012 160.235 357.948 163.173 C357.94 163.282 357.96 163.426 357.98 163.578 358.014 163.738 358.033 163.898 358.021 164.058 357.546 165.371 357.164 166.66 356.922 167.915 356.663 169.178 356.497 170.433 356.408 171.68 356.389 171.942 356.263 172.219 356.027 172.522 355.793 172.816 355.452 173.11 354.988 173.403 Z M384.425 162.749 C384.922 162.405 385.436 162.044 385.936 161.667 388.187 160.689 390.039 159.743 391.507 158.839 392.96 157.925 394.027 157.078 394.709 156.297 L394.351 155.107 C394.762 154.695 395.757 154.219 397.337 153.668 398.902 153.109 400.173 152.836 401.118 152.839 402.139 152.843 402.981 153.015 403.659 153.346 404.322 153.677 404.983 154.025 405.613 154.382 405.925 154.501 406.163 154.594 406.31 154.662 407.464 155.156 408.3 155.841 408.832 156.72 409.364 157.59 409.594 158.653 409.504 159.9 409.457 160.557 408.932 161.499 407.914 162.718 406.912 163.945 406.372 164.87 406.328 165.493 406.322 165.578 406.379 165.637 406.482 165.688 406.57 165.739 406.72 165.765 406.888 165.765 407.284 165.767 407.749 165.676 408.296 165.484 408.843 165.301 409.426 165.041 410.074 164.715 411.707 163.861 412.686 163.393 413.012 163.31 413.354 163.219 413.761 163.068 414.25 162.851 414.47 163.18 414.734 163.535 415.043 163.916 415.351 164.296 415.642 164.702 415.917 165.133 415.633 165.267 415.317 165.417 414.968 165.601 414.62 165.777 414.194 165.978 413.689 166.212 412.653 166.621 411.306 167.113 409.633 167.689 407.975 168.264 405.99 168.931 403.664 169.673 403.055 169.89 402.356 170.055 401.584 170.188 400.334 170.183 399.396 170.078 398.786 169.865 398.175 169.661 397.894 169.323 397.926 168.867 397.94 168.682 398.015 168.48 398.17 168.236 398.309 168.001 398.526 167.74 398.774 167.463 398.972 167.253 399.187 167.035 399.401 166.808 399.63 166.59 399.829 166.363 399.998 166.136 400.713 165.102 401.285 164.143 401.699 163.251 402.098 162.367 402.323 161.568 402.374 160.86 402.436 159.992 402.24 159.325 401.785 158.86 401.33 158.403 400.602 158.131 399.63 158.068 398.96 158.259 398.224 158.535 397.42 158.894 396.632 159.254 395.807 159.706 394.96 160.242 394.063 160.837 393.251 161.315 392.538 161.691 391.825 162.068 391.242 162.319 390.79 162.452 390.498 162.695 390.051 162.98 389.434 163.29 388.817 163.599 388 163.934 386.999 164.292 386.932 164.36 386.835 164.452 386.703 164.586 386.571 164.72 386.378 164.863 386.091 165.031 385.875 164.65 385.627 164.27 385.349 163.898 385.07 163.527 384.762 163.146 384.425 162.749 Z M414.22 162.851 L414.506 162.684 414.646 162.432 C415.498 161.828 416.972 161.041 419.07 160.071 421.168 159.101 422.612 158.314 423.434 157.71 423.757 157.45 424.107 157.258 424.512 157.141 424.9 157.033 425.286 156.975 425.682 156.977 426.719 156.981 427.593 157.127 428.29 157.416 428.986 157.706 429.427 158.145 429.615 158.719 429.791 159.234 429.953 159.749 430.084 160.264 430.229 160.787 430.344 161.31 430.429 161.832 430.603 162.162 430.827 162.66 431.069 163.327 431.327 163.994 431.513 164.374 431.658 164.475 431.784 164.636 432.004 164.755 432.288 164.832 432.588 164.909 432.951 164.944 433.393 164.945 433.927 164.947 434.48 164.899 435.052 164.791 435.608 164.692 436.201 164.509 436.815 164.242 437.272 164.033 437.76 163.815 438.264 163.598 438.768 163.372 439.257 163.155 439.744 162.946 L441.411 165.228 C440.92 165.488 440.257 165.788 439.456 166.122 438.639 166.457 437.665 166.849 436.535 167.292 435.28 167.776 434.217 168.143 433.346 168.376 432.46 168.617 431.811 168.732 431.353 168.731 428.654 168.721 426.914 168.537 426.13 168.189 425.362 167.84 424.531 166.876 423.668 165.297 423.556 165.153 423.399 165.001 423.169 164.815 422.953 164.637 422.694 164.417 422.422 164.171 422.083 163.791 421.799 163.503 421.538 163.317 421.292 163.122 421.07 163.028 420.887 163.028 420.415 163.026 419.762 163.201 418.943 163.552 418.11 163.903 417.096 164.43 415.886 165.133 415.749 164.922 415.585 164.66 415.377 164.364 415.17 164.069 414.95 163.722 414.734 163.325 414.681 163.224 414.611 163.131 414.526 163.046 414.44 162.97 414.338 162.902 414.22 162.851 Z M434.231 143.455 C434.978 143.458 435.521 143.544 435.844 143.706 436.183 143.875 436.334 144.112 436.312 144.424 436.095 144.887 435.915 145.273 435.786 145.585 435.439 146.174 435.145 146.661 434.889 147.04 434.648 147.418 434.461 147.687 434.328 147.855 434.027 148.208 433.639 148.527 433.162 148.795 432.685 149.063 432.103 149.305 431.432 149.522 430.728 149.781 430.15 149.964 429.67 150.072 429.205 150.171 428.881 150.22 428.699 150.203 428.198 150.167 427.713 150.132 427.257 150.105 426.801 150.086 426.345 150.068 425.903 150.066 425.515 149.947 425.225 149.726 425.035 149.397 424.83 149.068 424.755 148.621 424.795 148.064 424.831 147.567 425.409 146.945 426.56 146.208 427.696 145.462 428.686 145.061 429.528 145.014 430.056 144.67 430.678 144.285 431.397 143.841 431.695 143.724 432.098 143.633 432.576 143.559 433.054 143.484 433.606 143.453 434.231 143.455 Z M439.775 162.946 C440.165 162.61 440.647 162.267 441.251 161.923 441.84 161.571 442.598 161.22 443.494 160.853 443.609 160.524 443.723 160.196 443.838 159.876 443.937 159.556 444.021 159.228 444.076 158.899 444.183 158.672 444.34 158.403 444.56 158.092 444.781 157.781 445.018 157.445 445.273 157.083 445.574 156.722 445.972 156.268 446.468 155.73 446.965 155.185 447.618 154.58 448.414 153.909 449.066 153.532 449.736 153.121 450.455 152.669 451.173 152.225 451.892 151.764 452.611 151.311 452.942 151.161 453.318 151.027 453.708 150.894 454.099 150.761 454.506 150.619 454.899 150.452 455.255 150.386 455.67 150.337 456.116 150.288 456.561 150.239 457.051 150.215 457.6 150.217 458.332 150.22 458.939 150.265 459.39 150.35 459.842 150.428 460.214 150.573 460.504 150.768 460.693 150.903 460.877 151.098 461.056 151.368 461.235 151.63 461.396 151.951 461.551 152.331 461.604 152.66 461.685 153.022 461.779 153.419 461.786 153.318 461.738 153.36 461.617 153.536 461.498 153.721 461.325 154.007 461.083 154.403 L460.63 155.185 C460.147 155.975 459.151 156.882 457.629 157.913 456.091 158.944 454.039 160.125 451.473 161.447 451.266 161.564 451.073 161.707 450.909 161.875 450.759 162.051 450.669 162.236 450.656 162.43 450.631 162.776 450.716 163.08 450.926 163.341 451.135 163.612 451.442 163.807 451.843 163.943 452.081 164.037 452.455 164.139 452.966 164.242 453.493 164.337 454.096 164.432 454.807 164.519 455.985 164.473 457.06 164.367 458.017 164.211 458.989 164.046 459.858 163.846 460.622 163.614 460.778 163.563 461.027 163.489 461.354 163.397 461.696 163.306 462.025 163.18 462.371 163.03 462.719 163.512 463.039 163.943 463.301 164.323 463.578 164.703 463.784 165.033 463.947 165.312 462.188 166.232 460.582 166.934 459.161 167.401 457.74 167.868 456.457 168.099 455.283 168.095 454.799 168.261 454.241 168.377 453.626 168.451 453.01 168.524 452.291 168.555 451.453 168.552 450.355 168.548 449.386 168.452 448.544 168.272 447.703 168.083 447.022 167.811 446.467 167.463 446.19 167.294 445.902 167.048 445.635 166.727 445.354 166.397 445.076 166.017 444.773 165.561 444.54 165.197 444.299 164.927 444.068 164.757 443.852 164.579 443.583 164.494 443.279 164.493 443.05 164.492 442.771 164.55 442.473 164.676 442.158 164.801 441.825 164.985 441.441 165.228 441.337 164.983 441.146 164.671 440.867 164.307 440.588 163.944 440.223 163.496 439.775 162.946 Z M454.634 155.011 C453.978 155.008 453.06 155.477 451.879 156.425 450.698 157.373 450.098 158.07 450.066 158.517 450.06 158.61 450.085 158.686 450.158 158.728 450.231 158.77 450.398 158.788 450.627 158.789 450.962 158.79 451.243 158.698 451.455 158.506 451.682 158.321 451.893 158.145 452.088 157.977 452.42 157.809 452.753 157.634 453.086 157.449 453.42 157.257 453.739 157.072 454.042 156.888 454.424 156.662 454.715 156.435 454.899 156.2 455.099 155.973 455.207 155.738 455.223 155.51 455.234 155.358 455.197 155.24 455.097 155.147 454.997 155.054 454.847 155.012 454.634 155.011 Z M462.25 163.029 C462.38 162.912 462.542 162.786 462.749 162.652 462.958 162.51 463.199 162.342 463.472 162.149 463.786 162.024 464.181 161.831 464.687 161.589 465.177 161.346 465.731 161.062 466.349 160.735 466.906 160.408 467.606 160.007 468.403 159.529 469.215 159.043 470.202 158.465 471.35 157.779 471.858 157.502 472.478 157.15 473.225 156.723 473.973 156.288 474.849 155.768 475.883 155.166 476.761 154.629 477.673 154.237 478.653 153.979 479.632 153.721 480.648 153.59 481.731 153.594 482.798 153.598 483.578 153.786 484.054 154.159 484.531 154.532 484.752 155.064 484.702 155.771 484.674 156.151 484.364 156.874 483.784 157.934 483.204 159.002 482.311 160.407 481.118 162.164 480.819 162.492 480.538 162.802 480.288 163.096 480.09 163.306 479.954 163.5 479.882 163.66 479.808 163.828 479.784 163.954 479.779 164.03 479.771 164.131 479.854 164.258 480.057 164.402 480.213 164.352 480.354 164.294 480.498 164.21 480.641 164.126 480.801 164.025 480.992 163.917 481.239 163.665 481.623 163.413 482.131 163.137 482.653 162.869 483.254 162.568 483.964 162.242 484.258 161.965 484.613 161.688 485.075 161.42 485.521 161.152 486.027 160.901 486.577 160.675 486.704 160.608 486.864 160.499 487.073 160.357 487.267 160.206 487.506 160.055 487.793 159.888 488.189 159.678 488.678 159.453 489.228 159.227 489.778 159.001 490.421 158.759 491.154 158.518 491.964 158.293 492.709 158.111 493.359 157.978 494.009 157.854 494.562 157.789 495.051 157.79 495.965 157.794 496.779 157.923 497.479 158.171 498.163 158.417 498.745 158.807 499.226 159.332 499.747 160.353 500.244 161.299 500.716 162.169 500.999 162.684 501.338 163.065 501.732 163.311 502.111 163.557 502.559 163.685 503.062 163.687 503.443 163.688 503.782 163.647 504.093 163.564 504.404 163.481 504.703 163.356 504.974 163.188 L506.64 165.47 C506.121 165.696 505.585 165.938 505.034 166.18 504.467 166.431 503.932 166.665 503.412 166.891 502.702 167.234 502.044 167.476 501.439 167.617 500.834 167.758 500.234 167.823 499.639 167.821 498.953 167.818 498.304 167.732 497.69 167.569 497.077 167.398 496.561 167.152 496.142 166.822 495.908 166.694 495.635 166.449 495.295 166.094 494.969 165.739 494.589 165.299 494.139 164.766 493.773 164.554 493.351 164.274 492.888 163.919 492.426 163.563 491.875 163.148 491.254 162.665 L490.863 162.588 C490.292 162.687 489.717 162.836 489.154 163.028 488.591 163.22 487.978 163.479 487.345 163.788 485.957 164.441 484.952 164.842 484.345 165.008 483.739 165.166 483.329 165.358 483.101 165.568 482.66 165.962 481.907 166.474 480.856 167.094 479.805 167.714 478.486 168.451 476.9 169.296 476.504 169.514 476.108 169.714 475.696 169.924 475.301 170.124 474.89 170.325 474.494 170.526 474.1 170.701 473.649 170.826 473.155 170.9 472.663 170.974 472.111 171.006 471.517 171.004 470.327 170.999 469.688 170.77 469.628 170.314 469.554 169.859 469.48 169.403 469.422 168.939 469.929 168.25 470.494 167.392 471.133 166.35 471.771 165.315 472.513 164.113 473.345 162.725 473.35 162.649 473.419 162.54 473.536 162.397 473.638 162.254 473.788 162.069 473.942 161.842 474.109 161.632 474.229 161.447 474.301 161.287 474.373 161.136 474.414 160.993 474.422 160.883 474.43 160.765 474.361 160.672 474.213 160.604 474.065 160.545 473.838 160.51 473.503 160.509 473.213 160.508 472.81 160.599 472.308 160.799 471.791 160.991 471.189 161.301 470.472 161.728 469.598 162.222 468.9 162.607 468.376 162.884 467.853 163.16 467.49 163.327 467.319 163.377 467.006 163.486 466.643 163.653 466.232 163.862 465.82 164.08 465.345 164.314 464.824 164.573 464.758 164.64 464.659 164.741 464.528 164.867 464.396 165.001 464.203 165.144 463.917 165.311 463.812 165.066 463.621 164.754 463.342 164.391 463.063 164.027 462.698 163.579 462.25 163.029 Z M504.959 163.188 L505.245 163.021 505.385 162.776 C505.96 162.416 506.437 162.14 506.848 161.931 507.244 161.73 507.56 161.571 507.767 161.462 507.925 161.378 508.268 161.27 508.781 161.145 509.309 161.012 510.006 160.855 510.874 160.665 L511.484 160.464 C511.694 160.288 512.094 160.028 512.652 159.685 513.211 159.341 513.895 158.948 514.659 158.504 514.818 158.403 515.055 158.303 515.353 158.186 515.666 158.069 515.981 157.927 516.33 157.743 517.074 157.366 517.818 156.981 518.548 156.58 519.294 156.178 519.993 155.784 520.647 155.391 520.932 155.248 521.5 154.981 522.367 154.596 523.217 154.212 524.4 153.677 525.867 152.991 526.087 152.908 526.461 152.791 527.021 152.641 527.566 152.483 528.28 152.3 529.15 152.093 529.553 151.993 529.855 151.834 530.053 151.616 530.268 151.389 530.379 151.111 530.403 150.765 530.663 150.547 530.911 150.287 531.161 149.985 531.411 149.682 531.651 149.32 531.878 148.917 532.22 148.404 532.478 147.992 532.669 147.672 532.86 147.344 532.997 147.134 533.097 147.016 533.654 146.277 534.402 145.411 535.327 144.42 536.268 143.421 537.371 142.287 538.668 141.002 539.311 140.33 540.065 139.583 540.917 138.768 541.45 138.357 542.052 138.048 542.691 137.848 543.331 137.639 543.994 137.541 544.665 137.543 545.214 137.545 545.602 137.665 545.83 137.893 546.073 138.122 546.171 138.459 546.139 138.906 546.088 139.613 545.948 140.287 545.719 140.936 545.505 141.575 545.127 142.172 544.614 142.735 544.514 142.844 544.425 143.021 544.348 143.248 544.271 143.476 544.189 143.762 544.105 144.09 544.058 144.318 543.936 144.536 543.722 144.755 543.509 144.965 543.25 145.166 542.948 145.342 542.939 145.46 542.899 145.595 542.827 145.755 542.755 145.906 542.681 146.091 542.604 146.31 L541.947 146.746 C541.879 146.847 541.84 146.964 541.83 147.108 541.82 147.243 541.81 147.386 541.799 147.537 541.792 147.639 541.671 147.832 541.438 148.118 541.218 148.404 540.869 148.815 540.419 149.336 539.891 149.899 539.479 150.336 539.181 150.663 538.868 150.991 538.7 151.201 538.663 151.285 538.536 151.361 538.374 151.495 538.162 151.68 537.952 151.856 537.708 152.057 537.432 152.292 L537.516 152.832 534.242 158.501 C534.198 159.124 534.175 159.655 534.173 160.102 534.173 160.54 534.239 160.894 534.372 161.156 534.49 161.435 534.709 161.781 535.031 162.179 535.338 162.584 535.749 163.015 536.234 163.481 536.548 163.794 536.913 164.023 537.345 164.16 537.777 164.304 538.245 164.373 538.748 164.375 539.312 164.377 539.882 164.295 540.475 164.12 541.066 163.954 541.665 163.687 542.285 163.326 542.621 163.758 542.942 164.163 543.235 164.544 543.529 164.924 543.762 165.279 543.952 165.608 543.796 165.658 543.464 165.826 542.955 166.11 542.447 166.395 541.762 166.806 540.932 167.325 540.436 167.635 539.825 167.86 539.114 168.001 538.403 168.133 537.544 168.206 536.537 168.202 534.296 168.194 532.505 167.859 531.163 167.213 529.806 166.567 528.899 165.603 528.427 164.32 528.323 164.059 528.233 163.831 528.155 163.636 528.078 163.434 527.999 163.257 527.919 163.096 527.743 162.784 527.401 162.445 526.925 162.081 526.714 162.249 526.538 162.366 526.41 162.45 526.049 162.583 525.64 162.767 525.18 163.01 524.736 163.261 524.271 163.572 523.801 163.949 523.699 164.109 523.516 164.31 523.27 164.546 523.009 164.789 522.669 165.066 522.219 165.393 521.229 166.005 520.225 166.608 519.189 167.228 518.169 167.839 517.135 168.442 516.117 169.028 514.716 169.849 513.438 170.443 512.282 170.826 511.125 171.21 510.136 171.4 509.298 171.397 507.803 171.391 506.719 171.194 506.031 170.803 505.341 170.413 505.034 169.805 505.093 168.979 505.12 168.6 505.418 168.07 505.985 167.389 506.553 166.7 506.848 166.196 506.872 165.867 L506.626 165.47 Z M527.938 156.235 C527.945 156.151 527.892 156.024 527.782 155.864 527.322 156.106 526.752 156.391 526.072 156.725 525.393 157.052 524.606 157.403 523.678 157.795 523.445 158.065 522.943 158.476 522.17 159.037 521.382 159.608 520.295 160.303 518.893 161.141 518.479 161.384 517.931 161.803 517.231 162.407 516.548 163.004 515.687 163.734 514.679 164.606 514.32 164.951 513.954 165.362 513.553 165.858 513.545 165.959 513.66 166.061 513.895 166.18 514.79 166.04 515.92 165.606 517.267 164.894 518.599 164.183 520.209 163.202 522.085 161.937 524.026 160.595 525.481 159.454 526.432 158.514 527.4 157.573 527.897 156.808 527.938 156.235 Z M542.301 163.326 L542.587 163.159 C542.726 162.923 543.003 162.68 543.417 162.42 543.848 162.161 544.431 161.893 545.213 161.635 546.213 161.293 547.011 161.018 547.575 160.809 548.139 160.592 548.501 160.442 548.615 160.341 548.902 160.165 549.096 160.022 549.194 159.921 549.523 159.796 549.948 159.621 550.437 159.387 550.942 159.161 551.495 158.885 552.113 158.559 552.333 158.475 552.571 158.341 552.812 158.165 553.069 157.989 553.328 157.779 553.573 157.553 553.981 157.402 554.436 157.218 554.94 156.993 555.445 156.759 556.046 156.466 556.727 156.106 557.506 155.671 558.379 155.185 559.363 154.649 560.331 154.122 561.423 153.57 562.623 153.001 563.027 152.901 563.398 152.827 563.738 152.769 564.093 152.711 564.43 152.687 564.75 152.688 566.092 152.693 567.085 152.874 567.731 153.23 568.377 153.587 568.676 154.094 568.629 154.751 568.617 154.919 568.552 155.189 568.418 155.568 568.284 155.947 568.144 156.418 567.98 156.999 567.45 158.657 567.072 159.668 566.863 160.029 566.669 160.391 565.948 161.518 564.744 163.427 564.477 163.737 564.206 164.124 563.93 164.578 563.637 165.041 563.292 165.596 562.895 166.252 562.935 166.32 563.083 166.388 563.322 166.456 563.535 166.456 563.909 166.348 564.46 166.123 565.009 165.906 565.75 165.571 566.681 165.128 567.771 164.601 568.608 164.2 569.238 163.924 569.853 163.64 570.231 163.481 570.387 163.431 570.706 163.878 571.012 164.284 571.275 164.656 571.554 165.028 571.772 165.383 571.962 165.712 571.571 165.846 571.21 165.988 570.878 166.155 570.562 166.314 570.244 166.498 569.97 166.691 569.328 166.925 568.578 167.183 567.749 167.475 566.904 167.767 565.982 168.084 564.966 168.426 564.505 168.677 563.874 168.969 563.086 169.329 562.314 169.68 561.416 170.073 560.438 170.516 L559.578 170.606 C559.143 170.924 558.73 171.159 558.338 171.318 557.959 171.485 557.616 171.601 557.306 171.668 556.826 171.759 556.347 171.85 555.853 171.94 555.373 172.031 554.864 172.122 554.322 172.221 553.991 172.169 553.77 172.059 553.629 171.898 553.489 171.729 553.443 171.518 553.492 171.257 553.082 170.809 552.752 170.302 552.534 169.72 552.301 169.146 552.209 168.505 552.26 167.797 552.27 167.662 552.295 167.527 552.336 167.376 552.377 167.224 552.417 167.098 552.456 166.98 552.273 166.55 552.2 166.296 552.206 166.212 552.241 165.723 552.605 165.32 553.315 164.994 554.024 164.676 554.813 164.519 555.682 164.522 556.125 164.524 556.435 164.66 556.615 164.914 556.78 165.167 556.985 165.294 557.182 165.295 557.396 165.296 557.626 165.069 557.886 164.623 558.132 164.169 558.393 163.504 558.669 162.637 558.937 161.88 559.121 161.223 559.222 160.667 559.308 160.102 559.369 159.681 559.39 159.378 559.406 159.167 559.341 159.007 559.181 158.897 559.036 158.795 558.75 158.735 558.369 158.733 557.988 158.732 556.702 159.225 554.512 160.203 552.322 161.181 549.259 162.636 545.338 164.577 545.207 164.694 545.03 164.828 544.789 164.996 544.564 165.155 544.29 165.365 543.967 165.608 543.863 165.363 543.672 165.051 543.393 164.688 543.114 164.324 542.749 163.876 542.301 163.326 Z" fill="#3a3a3a" fill-opacity="1" stroke="none"/>
 </g>
 <path id="path30" d="M222.233 108.195 L251.904 108.306 252.2 74.613 361.695 75.047 361.987 57.815 251.919 57.864 C252.123 46.837 251.253 37.865 265.751 36.233 L361.379 37.044 317.336 22 C306.289 18.226 305.642 18.128 293.97 18.294 L255.088 18.846 C237.469 19.442 225.718 25.95 222.652 41.207 Z" fill="#ffeb00" fill-opacity="1" stroke="#ffeb00" stroke-width="0.567" stroke-opacity="1" stroke-linejoin="round"/>
 <path id="path32" d="M69.949 18.048 L99.198 18.222 99.073 60.057 170.169 18.858 208.127 18.789 135.9 61.825 210.06 107.438 171.207 107.196 99.22 64.673 98.957 107.295 69.595 107.186 Z" fill="#008f35" fill-opacity="1" stroke="#008f35" stroke-width="0.567" stroke-opacity="1" stroke-linejoin="round"/>
 <path id="path34" d="M534.246 57.207 C532.845 60.474 530.165 63.673 526.517 66.82 521.164 72.529 516.781 78.264 522.493 89.929 510.505 93.296 502.192 94.033 490.284 95.403 488.344 96.09 488.278 99.432 491.208 98.813 502.427 96.972 513.843 97.14 523.816 92.349 527.353 90.651 526.755 91.141 525.836 87.453 525.295 85.281 524.754 83.108 524.212 80.936 524.231 76.552 526.363 73.118 529.377 70.079 532.977 65.447 538.981 61.823 540.178 56.182 539.669 51.732 535.714 53.782 534.246 57.207 Z" fill="#3a3a3a" fill-opacity="1" stroke="none"/>
 <path id="path36" d="M466.508 108.213 C479.732 109.671 492.561 111.442 504.111 114.228 504.668 114.439 504.438 116.084 503.853 116.352 491.705 113.885 478.61 111.888 464.124 110.58 465.639 117.783 465.949 124.432 463.802 129.954 453.372 147.67 436.124 101.57 464.423 97.456 468.349 97.283 471.871 98.087 475.04 99.745 477.928 101.71 480.306 104.081 482.358 106.71 473.958 105.929 468.23 106.248 466.508 108.213 Z" fill="#3a3a3a" fill-opacity="1" stroke="#3a3a3a" stroke-width="0.567" stroke-opacity="1" stroke-linejoin="round"/>
 <path id="path38" d="M462.184 128.323 C464.294 124.353 463.85 119.528 462.837 115.218 460.25 104.225 468.041 106.012 477.832 104.386 469.965 96.425 458.121 97.814 453.028 106.082 450.691 109.878 450.227 115.264 450.878 121.272 451.22 124.434 456.688 138.398 462.184 128.323 Z" fill="#ffffff" fill-opacity="1" stroke="none"/>
 <path id="path40" d="M377.226 108.771 L406.897 108.881 407.193 75.188 516.689 75.622 516.981 58.391 406.913 58.439 C407.116 47.412 406.247 38.44 420.744 36.808 L516.373 37.619 472.329 22.575 C461.283 18.801 460.635 18.703 448.963 18.869 L410.081 19.421 C392.462 20.017 380.712 26.525 377.646 41.783 Z" fill="#0099d9" fill-opacity="1" stroke="#0099d9" stroke-width="0.567" stroke-opacity="1" stroke-linejoin="round"/>
</svg>
